<svg width="25" height="26" viewBox="0 0 25 26" fill="none" xmlns="http://www.w3.org/2000/svg">
<path d="M12.787 1.6636L15.1046 9.2883C15.2711 9.83591 15.7761 10.2102 16.3484 10.2102H23.956C24.2418 10.2102 24.3657 10.5719 24.14 10.7472L17.8956 15.5969C17.47 15.9274 17.2925 16.4862 17.4492 17.0017L19.8124 24.7765C19.8975 25.0565 19.5724 25.2802 19.3413 25.1007L13.2974 20.4067C12.8282 20.0423 12.1718 20.0423 11.7026 20.4067L5.65868 25.1007C5.42759 25.2802 5.10254 25.0565 5.18763 24.7765L7.55084 17.0017C7.70754 16.4862 7.52998 15.9274 7.10443 15.5969L0.85997 10.7472C0.634286 10.5719 0.758233 10.2102 1.04399 10.2102H8.65157C9.22392 10.2102 9.72893 9.83591 9.89538 9.2883L12.213 1.6636C12.2992 1.37993 12.7008 1.37993 12.787 1.6636Z" fill="#446CD3" stroke="#4C76E2"/>
</svg>
